# xmcd CD database file
# Copyright (C) 1993-1998 Ti Kan
# 
# Track frame offsets:
#     150
#     9932
#     19425
#     29952
#     39042
#     49695
#     60502
#     68052
#     79965
#     88347
#     97825
#     106415
#     111752
# 
# Disc length: 1557 seconds
# 
# Revision: 1
# Processed by: cddbd v1.4b41PL1 Copyright (c) Steve Scherf et al.
# Submitted via: DiscPlay 4.0.4
# 
DISCID=a106130d
DTITLE=Varios - Villancicos Clasicos Para Cantar En Familia
DYEAR=1900
DGENRE=
TTITLE0=Noche de paz
TTITLE1=Vamos pastorcillos
TTITLE2=Campana sobre campana
TTITLE3=Adeste Fideles
TTITLE4=Ande, ande, ande
TTITLE5=Dime ni o de quien eres
TTITLE6=Campanitas del lugar
TTITLE7=Rin Rin
TTITLE8=Alegria, alegria
TTITLE9=Los peces en el rio
TTITLE10=A Belen pastorcillos
TTITLE11=Pastores venid
TTITLE12=Ay del Chiquirritin
EXTD=
EXTT0=
EXTT1=
EXTT2=
EXTT3=
EXTT4=
EXTT5=
EXTT6=
EXTT7=
EXTT8=
EXTT9=
EXTT10=
EXTT11=
EXTT12=
PLAYORDER=
